<mxfile host="www.draw.io" modified="2020-03-01T19:34:16.872Z" agent="Mozilla/5.0 (Macintosh; Intel Mac OS X 10_13_6) AppleWebKit/537.36 (KHTML, like Gecko) Chrome/80.0.3987.122 Safari/537.36" etag="G-30KfPY-is0fPP48Aej" version="12.7.9" type="github">
  <diagram id="vt1Ux93TiOpqBw-dAkdH" name="Page-1">
    <mxGraphModel dx="946" dy="2690" grid="1" gridSize="10" guides="1" tooltips="1" connect="1" arrows="1" fold="1" page="1" pageScale="1" pageWidth="850" pageHeight="1100" math="0" shadow="0">
      <root>
        <mxCell id="0" />
        <mxCell id="1" parent="0" />
        <mxCell id="qJJJtE1cYMOXlpDBL2jb-4" value="" style="rounded=1;whiteSpace=wrap;html=1;fillColor=#fff2cc;strokeColor=#d6b656;" parent="1" vertex="1">
          <mxGeometry x="50" y="-1560" width="662.5" height="920" as="geometry" />
        </mxCell>
        <mxCell id="qJJJtE1cYMOXlpDBL2jb-22" style="edgeStyle=orthogonalEdgeStyle;rounded=0;orthogonalLoop=1;jettySize=auto;html=1;exitX=0.5;exitY=1;exitDx=0;exitDy=0;" parent="1" edge="1">
          <mxGeometry relative="1" as="geometry">
            <mxPoint x="330" y="-1250" as="sourcePoint" />
            <mxPoint x="330" y="-1250" as="targetPoint" />
          </mxGeometry>
        </mxCell>
        <mxCell id="qJJJtE1cYMOXlpDBL2jb-26" value="&lt;font style=&quot;font-size: 33px&quot;&gt;Michael Franceski&lt;br&gt;&lt;/font&gt;" style="text;html=1;strokeColor=none;fillColor=none;align=center;verticalAlign=middle;whiteSpace=wrap;rounded=0;" parent="1" vertex="1">
          <mxGeometry x="110" y="-1560" width="200" height="140" as="geometry" />
        </mxCell>
        <mxCell id="qJJJtE1cYMOXlpDBL2jb-29" value="&lt;font style=&quot;font-size: 16px&quot;&gt;320 Strawberry Hill Ave.&amp;nbsp;&lt;br&gt;Unit 39&lt;br&gt;Stamford CT, 06902&lt;/font&gt;" style="text;html=1;strokeColor=none;fillColor=none;align=left;verticalAlign=middle;whiteSpace=wrap;rounded=0;" parent="1" vertex="1">
          <mxGeometry x="440" y="-1530" width="220" height="90" as="geometry" />
        </mxCell>
        <mxCell id="qJJJtE1cYMOXlpDBL2jb-30" value="&lt;div style=&quot;text-align: left&quot;&gt;&lt;span style=&quot;font-size: 16px&quot;&gt;&amp;nbsp;31 Murray Park&lt;/span&gt;&lt;/div&gt;&lt;font style=&quot;font-size: 16px&quot;&gt;&lt;div style=&quot;text-align: left&quot;&gt;&lt;span&gt;&amp;nbsp;St. Andrews&amp;nbsp;&lt;/span&gt;&lt;/div&gt;&lt;div style=&quot;text-align: left&quot;&gt;&lt;span&gt;&amp;nbsp;KY16 9AW&lt;/span&gt;&lt;/div&gt;&lt;/font&gt;" style="text;html=1;strokeColor=none;fillColor=none;align=center;verticalAlign=middle;whiteSpace=wrap;rounded=0;" parent="1" vertex="1">
          <mxGeometry x="400" y="-1457.5" width="190" height="95" as="geometry" />
        </mxCell>
        <mxCell id="qJJJtE1cYMOXlpDBL2jb-32" value="&lt;font style=&quot;font-size: 16px&quot;&gt;USA&lt;/font&gt;:" style="text;html=1;strokeColor=none;fillColor=none;align=center;verticalAlign=middle;whiteSpace=wrap;rounded=0;" parent="1" vertex="1">
          <mxGeometry x="380" y="-1492.5" width="40" height="15" as="geometry" />
        </mxCell>
        <mxCell id="qJJJtE1cYMOXlpDBL2jb-34" value="&lt;font style=&quot;font-size: 16px&quot;&gt;UK:&lt;/font&gt;" style="text;html=1;strokeColor=none;fillColor=none;align=center;verticalAlign=middle;whiteSpace=wrap;rounded=0;" parent="1" vertex="1">
          <mxGeometry x="380" y="-1420" width="40" height="20" as="geometry" />
        </mxCell>
        <mxCell id="qJJJtE1cYMOXlpDBL2jb-37" value="&lt;font style=&quot;font-size: 16px&quot;&gt;mfranceski@optonline.net&lt;/font&gt;" style="text;html=1;strokeColor=none;fillColor=none;align=center;verticalAlign=middle;whiteSpace=wrap;rounded=0;" parent="1" vertex="1">
          <mxGeometry x="162.5" y="-1430" width="95" height="20" as="geometry" />
        </mxCell>
        <mxCell id="qJJJtE1cYMOXlpDBL2jb-38" value="&lt;font style=&quot;font-size: 16px&quot;&gt;+1-203-989-7246&lt;/font&gt;" style="text;html=1;strokeColor=none;fillColor=none;align=center;verticalAlign=middle;whiteSpace=wrap;rounded=0;" parent="1" vertex="1">
          <mxGeometry x="70" y="-1390" width="280" height="20" as="geometry" />
        </mxCell>
        <mxCell id="qJJJtE1cYMOXlpDBL2jb-41" value="" style="endArrow=none;html=1;entryX=0;entryY=0.239;entryDx=0;entryDy=0;entryPerimeter=0;exitX=1.001;exitY=0.236;exitDx=0;exitDy=0;exitPerimeter=0;" parent="1" source="qJJJtE1cYMOXlpDBL2jb-4" target="qJJJtE1cYMOXlpDBL2jb-4" edge="1">
          <mxGeometry width="50" height="50" relative="1" as="geometry">
            <mxPoint x="720" y="-1340" as="sourcePoint" />
            <mxPoint x="60" y="-1340" as="targetPoint" />
          </mxGeometry>
        </mxCell>
        <mxCell id="qJJJtE1cYMOXlpDBL2jb-44" value="&lt;font style=&quot;font-size: 20px&quot;&gt;&lt;b&gt;Education&lt;/b&gt;&lt;/font&gt;" style="text;html=1;strokeColor=none;fillColor=none;align=center;verticalAlign=middle;whiteSpace=wrap;rounded=0;" parent="1" vertex="1">
          <mxGeometry x="170" y="-1325" width="100" height="40" as="geometry" />
        </mxCell>
        <mxCell id="qJJJtE1cYMOXlpDBL2jb-45" value="&lt;font style=&quot;font-size: 15px&quot;&gt;2018-Present: University of St. Andrews&lt;br&gt;&amp;nbsp; &amp;nbsp; &amp;nbsp; &amp;nbsp; &amp;nbsp; &amp;nbsp; &amp;nbsp; &amp;nbsp; &amp;nbsp; &amp;nbsp; &amp;nbsp; &amp;nbsp;Computer Science Major&lt;/font&gt;" style="text;html=1;strokeColor=none;fillColor=none;align=center;verticalAlign=middle;whiteSpace=wrap;rounded=0;" parent="1" vertex="1">
          <mxGeometry x="70" y="-1290" width="300" height="60" as="geometry" />
        </mxCell>
        <mxCell id="qJJJtE1cYMOXlpDBL2jb-46" value="&lt;font style=&quot;font-size: 15px&quot;&gt;&amp;nbsp;2013-2017: Iona Preparatory School&lt;/font&gt;" style="text;html=1;strokeColor=none;fillColor=none;align=center;verticalAlign=middle;whiteSpace=wrap;rounded=0;" parent="1" vertex="1">
          <mxGeometry x="60" y="-1240" width="290" height="40" as="geometry" />
        </mxCell>
        <mxCell id="qJJJtE1cYMOXlpDBL2jb-49" value="&lt;font style=&quot;font-size: 20px&quot;&gt;&lt;b&gt;Additional Qualifications&lt;/b&gt;&lt;/font&gt;" style="text;html=1;strokeColor=none;fillColor=none;align=center;verticalAlign=middle;whiteSpace=wrap;rounded=0;" parent="1" vertex="1">
          <mxGeometry x="435" y="-1330" width="190" height="50" as="geometry" />
        </mxCell>
        <mxCell id="qJJJtE1cYMOXlpDBL2jb-50" value="&lt;font style=&quot;font-size: 15px&quot;&gt;2019-2021: Licensed Emergency Medical Technician (USA)&lt;/font&gt;" style="text;html=1;strokeColor=none;fillColor=none;align=center;verticalAlign=middle;whiteSpace=wrap;rounded=0;" parent="1" vertex="1">
          <mxGeometry x="385" y="-1285" width="290" height="70" as="geometry" />
        </mxCell>
        <mxCell id="qJJJtE1cYMOXlpDBL2jb-51" value="&lt;div style=&quot;text-align: left ; font-size: 15px&quot;&gt;&lt;font style=&quot;font-size: 15px&quot;&gt;NOLS (National Outdoor Leadership School) Graduate&amp;nbsp;&lt;/font&gt;&lt;/div&gt;&lt;font style=&quot;font-size: 15px&quot;&gt;&lt;font style=&quot;font-size: 15px&quot;&gt;2017: Alaska Backpacking&lt;br&gt;2018: Baja Coastal Sailing&lt;br&gt;&lt;/font&gt;&lt;br&gt;&lt;/font&gt;" style="text;html=1;strokeColor=none;fillColor=none;align=center;verticalAlign=middle;whiteSpace=wrap;rounded=0;" parent="1" vertex="1">
          <mxGeometry x="390" y="-1215" width="250" height="90" as="geometry" />
        </mxCell>
        <mxCell id="qJJJtE1cYMOXlpDBL2jb-54" value="&lt;font style=&quot;font-size: 20px&quot;&gt;&lt;b&gt;Relevant Coursework&lt;/b&gt;&lt;/font&gt;" style="text;html=1;strokeColor=none;fillColor=none;align=center;verticalAlign=middle;whiteSpace=wrap;rounded=0;" parent="1" vertex="1">
          <mxGeometry x="145" y="-1180" width="130" height="60" as="geometry" />
        </mxCell>
        <mxCell id="qJJJtE1cYMOXlpDBL2jb-55" value="&lt;font style=&quot;font-size: 15px&quot;&gt;&lt;font style=&quot;font-size: 15px&quot;&gt;Fall 2018: CS1002 Object Oriented Programming&lt;br&gt;Spring 2019: CS1003 Programming With Data&lt;br&gt;Sprint 2019: CS1006 Programming Projects&lt;/font&gt;&lt;br&gt;&amp;nbsp;&lt;/font&gt;" style="text;html=1;strokeColor=none;fillColor=none;align=left;verticalAlign=middle;whiteSpace=wrap;rounded=0;" parent="1" vertex="1">
          <mxGeometry x="70" y="-1100" width="359" height="120" as="geometry" />
        </mxCell>
        <mxCell id="qJJJtE1cYMOXlpDBL2jb-56" value="&lt;font style=&quot;font-size: 18px&quot;&gt;First Year&lt;/font&gt;" style="text;html=1;strokeColor=none;fillColor=none;align=center;verticalAlign=middle;whiteSpace=wrap;rounded=0;" parent="1" vertex="1">
          <mxGeometry x="160" y="-1110" width="100" height="20" as="geometry" />
        </mxCell>
        <mxCell id="qJJJtE1cYMOXlpDBL2jb-58" value="&lt;font style=&quot;font-size: 18px&quot;&gt;Second Year&lt;/font&gt;" style="text;html=1;strokeColor=none;fillColor=none;align=center;verticalAlign=middle;whiteSpace=wrap;rounded=0;" parent="1" vertex="1">
          <mxGeometry x="160" y="-1010" width="105" height="20" as="geometry" />
        </mxCell>
        <mxCell id="qJJJtE1cYMOXlpDBL2jb-59" value="&lt;font style=&quot;font-size: 15px&quot;&gt;Fall 2019: CS2001 Foundations Of Computation&lt;br&gt;Spring 2020: CS2002 Computer Systems&lt;br&gt;Spring 2020: CS2006 Advanced Programming Projects&lt;/font&gt;" style="text;html=1;strokeColor=none;fillColor=none;align=left;verticalAlign=middle;whiteSpace=wrap;rounded=0;" parent="1" vertex="1">
          <mxGeometry x="70" y="-990" width="400" height="90" as="geometry" />
        </mxCell>
        <mxCell id="qJJJtE1cYMOXlpDBL2jb-60" value="&lt;font style=&quot;font-size: 20px&quot;&gt;&lt;b&gt;Additional Activities&lt;/b&gt;&lt;/font&gt;" style="text;html=1;strokeColor=none;fillColor=none;align=center;verticalAlign=middle;whiteSpace=wrap;rounded=0;" parent="1" vertex="1">
          <mxGeometry x="450" y="-1100" width="240" height="80" as="geometry" />
        </mxCell>
        <mxCell id="qJJJtE1cYMOXlpDBL2jb-63" value="&lt;font style=&quot;font-size: 18px&quot;&gt;First Year&lt;/font&gt;" style="text;html=1;strokeColor=none;fillColor=none;align=center;verticalAlign=middle;whiteSpace=wrap;rounded=0;" parent="1" vertex="1">
          <mxGeometry x="520" y="-1030" width="100" height="20" as="geometry" />
        </mxCell>
        <mxCell id="qJJJtE1cYMOXlpDBL2jb-64" value="&lt;font style=&quot;font-size: 15px&quot;&gt;Chamber Orchestra First Violin&lt;/font&gt;" style="text;html=1;strokeColor=none;fillColor=none;align=center;verticalAlign=middle;whiteSpace=wrap;rounded=0;" parent="1" vertex="1">
          <mxGeometry x="465" y="-1010" width="225" height="50" as="geometry" />
        </mxCell>
        <mxCell id="qJJJtE1cYMOXlpDBL2jb-66" value="&lt;font style=&quot;font-size: 15px&quot;&gt;&amp;nbsp;Ultimate Frisbee Club (Team)&lt;/font&gt;" style="text;html=1;strokeColor=none;fillColor=none;align=center;verticalAlign=middle;whiteSpace=wrap;rounded=0;" parent="1" vertex="1">
          <mxGeometry x="462.5" y="-1000" width="212.5" height="70" as="geometry" />
        </mxCell>
        <mxCell id="qJJJtE1cYMOXlpDBL2jb-67" value="&lt;font style=&quot;font-size: 18px&quot;&gt;Second Year&lt;/font&gt;" style="text;html=1;strokeColor=none;fillColor=none;align=center;verticalAlign=middle;whiteSpace=wrap;rounded=0;" parent="1" vertex="1">
          <mxGeometry x="517.5" y="-940" width="105" height="20" as="geometry" />
        </mxCell>
        <mxCell id="qJJJtE1cYMOXlpDBL2jb-68" value="&lt;font style=&quot;font-size: 15px&quot;&gt;Ultimate Frisbee Club (Team)&lt;/font&gt;" style="text;html=1;" parent="1" vertex="1">
          <mxGeometry x="470" y="-910" width="180" height="40" as="geometry" />
        </mxCell>
        <mxCell id="qJJJtE1cYMOXlpDBL2jb-69" value="&lt;font style=&quot;font-size: 20px&quot;&gt;&lt;b&gt;Work Experience&lt;/b&gt;&lt;/font&gt;" style="text;html=1;strokeColor=none;fillColor=none;align=center;verticalAlign=middle;whiteSpace=wrap;rounded=0;" parent="1" vertex="1">
          <mxGeometry x="286.25" y="-870" width="190" height="30" as="geometry" />
        </mxCell>
        <mxCell id="qJJJtE1cYMOXlpDBL2jb-70" value="&lt;p class=&quot;MsoListParagraph&quot; style=&quot;margin: 0in 0in 0.0001pt 15pt ; text-indent: -10pt ; line-height: 11.1pt ; font-size: 15px&quot;&gt;Golf Caddie (2018-2019): Westchester Country Club, Rye, NY&lt;/p&gt;&lt;p class=&quot;MsoListParagraph&quot; style=&quot;margin: 0in 0in 0.0001pt 15pt ; text-indent: -10pt ; line-height: 11.1pt ; font-size: 15px&quot;&gt;&lt;br&gt;&lt;/p&gt;&lt;p class=&quot;MsoListParagraph&quot; style=&quot;margin: 0in 0in 0.0001pt 15pt ; text-indent: -10pt ; line-height: 11.1pt ; font-size: 15px&quot;&gt;Condominium Community Pool Manager (2016-2019): Daily chemical monitoring/recording and filter cleaning&amp;nbsp;&lt;/p&gt;&lt;p class=&quot;MsoListParagraph&quot; style=&quot;margin: 0in 0in 0.0001pt 15pt ; text-indent: -10pt ; line-height: 11.1pt ; font-size: 15px&quot;&gt;&amp;nbsp;&lt;/p&gt;&lt;p class=&quot;MsoListParagraph&quot; style=&quot;margin: 0in 0in 0.0001pt 15pt ; text-indent: -10pt ; line-height: 11.1pt ; font-size: 15px&quot;&gt;Various Paid Chamber Music Gigs&lt;/p&gt;&lt;p class=&quot;MsoListParagraph&quot; style=&quot;margin: 0in 0in 0.0001pt 15pt ; text-indent: -10pt ; line-height: 11.1pt ; font-size: 15px&quot;&gt;&lt;br&gt;&lt;/p&gt;&lt;p class=&quot;MsoListParagraph&quot; style=&quot;margin: 0in 0in 0.0001pt 15pt ; text-indent: -10pt ; line-height: 11.1pt ; font-size: 15px&quot;&gt;INTEMPO (2017): Intern violin instructor&lt;span style=&quot;text-indent: -10pt&quot;&gt;&amp;nbsp;&lt;/span&gt;&lt;/p&gt;&lt;p class=&quot;MsoListParagraph&quot; style=&quot;margin: 0in 0in 0.0001pt 15pt ; text-indent: -10pt ; line-height: 11.1pt ; font-size: 15px&quot;&gt;&lt;br&gt;&lt;/p&gt;" style="text;html=1;strokeColor=none;fillColor=none;align=left;verticalAlign=middle;whiteSpace=wrap;rounded=0;" parent="1" vertex="1">
          <mxGeometry x="145" y="-820" width="570" height="140" as="geometry" />
        </mxCell>
      </root>
    </mxGraphModel>
  </diagram>
</mxfile>
